<svg width="44" height="43" viewBox="0 0 44 43" fill="none" xmlns="http://www.w3.org/2000/svg">
<rect width="44" height="43" rx="5" fill="black"/>
<g clip-path="url(#clip0_162_1199)">
<path d="M21.5 12.0709C24.5727 12.0709 24.9365 12.0844 26.1449 12.1383C27.268 12.1877 27.8744 12.3764 28.2787 12.5336C28.8133 12.7402 29.1996 12.9918 29.5994 13.3916C30.0037 13.7959 30.2508 14.1777 30.4574 14.7123C30.6146 15.1166 30.8033 15.7275 30.8527 16.8461C30.9066 18.059 30.9201 18.4229 30.9201 21.491C30.9201 24.5637 30.9066 24.9275 30.8527 26.1359C30.8033 27.259 30.6146 27.8654 30.4574 28.2697C30.2508 28.8043 29.9992 29.1906 29.5994 29.5904C29.1951 29.9947 28.8133 30.2418 28.2787 30.4484C27.8744 30.6057 27.2635 30.7943 26.1449 30.8438C24.932 30.8977 24.5682 30.9111 21.5 30.9111C18.4273 30.9111 18.0635 30.8977 16.8551 30.8438C15.732 30.7943 15.1256 30.6057 14.7213 30.4484C14.1867 30.2418 13.8004 29.9902 13.4006 29.5904C12.9963 29.1861 12.7492 28.8043 12.5426 28.2697C12.3854 27.8654 12.1967 27.2545 12.1473 26.1359C12.0934 24.923 12.0799 24.5592 12.0799 21.491C12.0799 18.4184 12.0934 18.0545 12.1473 16.8461C12.1967 15.723 12.3854 15.1166 12.5426 14.7123C12.7492 14.1777 13.0008 13.7914 13.4006 13.3916C13.8049 12.9873 14.1867 12.7402 14.7213 12.5336C15.1256 12.3764 15.7365 12.1877 16.8551 12.1383C18.0635 12.0844 18.4273 12.0709 21.5 12.0709ZM21.5 10C18.3779 10 17.9871 10.0135 16.7607 10.0674C15.5389 10.1213 14.6988 10.3189 13.9711 10.602C13.2119 10.8984 12.5695 11.2893 11.9316 11.9316C11.2893 12.5695 10.8984 13.2119 10.602 13.9666C10.3189 14.6988 10.1213 15.5344 10.0674 16.7562C10.0135 17.9871 10 18.3779 10 21.5C10 24.6221 10.0135 25.0129 10.0674 26.2393C10.1213 27.4611 10.3189 28.3012 10.602 29.0289C10.8984 29.7881 11.2893 30.4305 11.9316 31.0684C12.5695 31.7062 13.2119 32.1016 13.9666 32.3936C14.6988 32.6766 15.5344 32.8742 16.7562 32.9281C17.9826 32.982 18.3734 32.9955 21.4955 32.9955C24.6176 32.9955 25.0084 32.982 26.2348 32.9281C27.4566 32.8742 28.2967 32.6766 29.0244 32.3936C29.7791 32.1016 30.4215 31.7062 31.0594 31.0684C31.6973 30.4305 32.0926 29.7881 32.3846 29.0334C32.6676 28.3012 32.8652 27.4656 32.9191 26.2437C32.973 25.0174 32.9865 24.6266 32.9865 21.5045C32.9865 18.3824 32.973 17.9916 32.9191 16.7652C32.8652 15.5434 32.6676 14.7033 32.3846 13.9756C32.1016 13.2119 31.7107 12.5695 31.0684 11.9316C30.4305 11.2938 29.7881 10.8984 29.0334 10.6064C28.3012 10.3234 27.4656 10.1258 26.2437 10.0719C25.0129 10.0135 24.6221 10 21.5 10Z" fill="white"/>
<path d="M21.5 15.5928C18.2387 15.5928 15.5928 18.2387 15.5928 21.5C15.5928 24.7613 18.2387 27.4072 21.5 27.4072C24.7613 27.4072 27.4072 24.7613 27.4072 21.5C27.4072 18.2387 24.7613 15.5928 21.5 15.5928ZM21.5 25.3318C19.3842 25.3318 17.6682 23.6158 17.6682 21.5C17.6682 19.3842 19.3842 17.6682 21.5 17.6682C23.6158 17.6682 25.3318 19.3842 25.3318 21.5C25.3318 23.6158 23.6158 25.3318 21.5 25.3318Z" fill="white"/>
<path d="M29.0199 15.3591C29.0199 16.1228 28.4 16.7382 27.6408 16.7382C26.8771 16.7382 26.2617 16.1183 26.2617 15.3591C26.2617 14.5955 26.8816 13.98 27.6408 13.98C28.4 13.98 29.0199 14.6 29.0199 15.3591Z" fill="white"/>
</g>
<defs>
<clipPath id="clip0_162_1199">
<rect width="23" height="23" fill="white" transform="translate(10 10)"/>
</clipPath>
</defs>
</svg>
