<svg width="30" height="30" viewBox="0 0 30 30" fill="none" xmlns="http://www.w3.org/2000/svg">
<mask id="mask0_1_31" style="mask-type:alpha" maskUnits="userSpaceOnUse" x="0" y="0" width="30" height="30">
<path d="M30 0H0V30H30V0Z" fill="white"/>
</mask>
<g mask="url(#mask0_1_31)">
<path d="M1.2501 14.375C2.4626 14.375 2.04304 23.436 2.04304 24.661C2.04304 25.8735 2.39734 24.7298 3.125 26.25C1.925 26.25 0 26.5179 0 25.625C0.701966 21.6765 0.0500974 14.375 1.2501 14.375ZM15.1438 7.575L28.8438 3.125L29.375 10.625L29.8688 15.5125L13.1063 20.9375V16.575L0.356316 20.7125V7.975L15.1438 3.1875V7.575ZM28.125 10L25.2041 6.47957L15.1415 9.75457V18.1171L26.0791 14.5671L28.125 10ZM13.1098 6.01311L2.39734 9.48811V17.8631L13.1098 14.3881V6.01311Z" fill="white"/>
</g>
</svg>
