<svg width="23" height="19" viewBox="0 0 23 19" fill="none" xmlns="http://www.w3.org/2000/svg">
<path d="M13.5 4H4.37798C3.19565 4 2.60404 4 2.15245 4.21799C1.75522 4.40973 1.4325 4.71547 1.2301 5.0918C1 5.51962 1 6.08009 1 7.2002V14.8002C1 15.9203 1 16.4801 1.2301 16.9079C1.4325 17.2842 1.75522 17.5905 2.15245 17.7822C2.6036 18 3.19449 18 4.37452 18H16.6255C17.8055 18 18.3955 18 18.8467 17.7822C19.2439 17.5905 19.5677 17.2842 19.7701 16.9079C20 16.4805 20 15.9215 20 14.8036V9.5M2.05556 5L8.50251 9.61227L8.50465 9.61396C9.22051 10.1113 9.57865 10.3601 9.97091 10.4562C10.3176 10.5412 10.6821 10.5412 11.0288 10.4562C11.4214 10.36 11.7806 10.1105 12.4977 9.61227C12.4977 9.61227 12.6884 9.60594 15 8" stroke="white" stroke-width="2" stroke-linecap="round" stroke-linejoin="round"/>
<circle cx="19" cy="4" r="4" fill="#FE5F55"/>
</svg>
