<svg width="21" height="16" viewBox="0 0 21 16" fill="none" xmlns="http://www.w3.org/2000/svg">
<path d="M13.5 1L4.37798 1C3.19565 1 2.60404 1 2.15245 1.21799C1.75522 1.40973 1.4325 1.71547 1.2301 2.0918C1 2.51962 1 3.08009 1 4.2002V11.8002C1 12.9203 1 13.4801 1.2301 13.9079C1.4325 14.2842 1.75522 14.5905 2.15245 14.7822C2.6036 15 3.19449 15 4.37452 15H16.6255C17.8055 15 18.3955 15 18.8467 14.7822C19.2439 14.5905 19.5677 14.2842 19.7701 13.9079C20 13.4805 20 12.9215 20 11.8036V6.5M2.05556 2L8.50251 6.61227L8.50465 6.61396C9.22051 7.11128 9.57865 7.3601 9.97091 7.45621C10.3176 7.54117 10.6821 7.54117 11.0288 7.45621" stroke="#2C6E49" stroke-width="2" stroke-linecap="round" stroke-linejoin="round"/>
<path d="M7.5 1L16.622 1C17.8043 1 18.396 1 18.8475 1.21799C19.2448 1.40973 19.5675 1.71547 19.7699 2.0918C20 2.51962 20 3.08009 20 4.2002V11.8002C20 12.9203 20 13.4801 19.7699 13.9079C19.5675 14.2842 19.2448 14.5905 18.8475 14.7822C18.3964 15 17.8055 15 16.6255 15H4.37452C3.19449 15 2.60445 15 2.1533 14.7822C1.75607 14.5905 1.43227 14.2842 1.22987 13.9079C1 13.4805 1 12.9215 1 11.8036V6.5M18.9444 2L12.4975 6.61227L12.4953 6.61396C11.7795 7.11128 11.4214 7.3601 11.0291 7.45621C10.6824 7.54117 10.3179 7.54117 9.97119 7.45621" stroke="#2C6E49" stroke-width="2" stroke-linecap="round" stroke-linejoin="round"/>
</svg>
