<svg width="23" height="29" viewBox="0 0 23 29" fill="none" xmlns="http://www.w3.org/2000/svg">
<path d="M11.4999 23.5V14.5M11.4999 14.5L6.99992 17.5M11.4999 14.5L15.9998 17.5M12.9998 1.0013C12.8566 1 12.6958 1 12.5119 1H5.80023C4.12009 1 3.2794 1 2.63767 1.32698C2.07319 1.6146 1.61459 2.07321 1.32698 2.6377C1 3.27943 1 4.12014 1 5.80029V23.2003C1 24.8804 1 25.7201 1.32698 26.3618C1.61459 26.9263 2.07319 27.3857 2.63767 27.6733C3.27878 28 4.11846 28 5.79535 28L17.2044 28C18.8813 28 19.7197 28 20.3608 27.6733C20.9253 27.3857 21.3854 26.9263 21.6731 26.3618C21.9997 25.7207 21.9997 24.8822 21.9997 23.2054V10.4885C21.9997 10.3044 21.9997 10.1434 21.9983 10M12.9998 1.0013C13.4283 1.0052 13.6993 1.02077 13.9581 1.08289C14.2642 1.15638 14.5566 1.2779 14.825 1.44238C15.1277 1.62785 15.3875 1.88773 15.906 2.40625L20.5942 7.09447C21.1131 7.61333 21.371 7.87204 21.5565 8.17479C21.721 8.44321 21.8427 8.73588 21.9162 9.04199C21.9783 9.30064 21.9942 9.57176 21.9983 10M12.9998 1.0013V5.2C12.9998 6.88016 12.9998 7.71965 13.3268 8.36139C13.6144 8.92587 14.073 9.38572 14.6375 9.67334C15.2786 10 16.1183 10 17.7951 10H21.9983M21.9983 10H22" stroke="#7C7C7C" stroke-linecap="round" stroke-linejoin="round"/>
</svg>
